<svg xmlns="http://www.w3.org/2000/svg" xmlns:xlink="http://www.w3.org/1999/xlink" version="1.1" width="100%" height="100%" viewBox="45 50 760 375">
  <title>World Map</title>
  
  <defs id="localdefs">
    <radialGradient id="mapGradient" cx="50%" cy="50%" r="500" gradientUnits="userSpaceOnUse">
      <stop offset="0" stop-color="cornflowerblue"/>
      <stop offset="1" stop-color="blue"/>
    </radialGradient>
  </defs>
  
  <rect id="sea" x="50" y="55" width="750" height="370" rx="225" ry="200" fill="navy" stroke="navy" />
  
 <g id="land" stroke-linecap="round" stroke-linejoin="round" stroke="cornflowerblue"  fill="url(#mapGradient)">
   <path d="M520,164c9.12-0,6-1,16.56,0.24c-3,3-13,19.58-20,15  C505,171,515,166,520,164"/>
   <path d="M437.14,153C441,162,439,157.4,437.14,153"/>
   <path d="M400,175c2-9,8-12,17.76-10c-1,13,17,33-5,35  C400,202.25,379,180,400,175"/>
   <path d="M406.18,153C405.58,152,405,152,406.18,153"/>
   <path d="M426.1,256C429,256,426,256,426.1,256 M428,257c27,2,27,33-3.12,24  C427,274,428,266,428,257"/>
   <path d="M182,407c31,0,58.85-7,90.24-5c-7-4,6,2-7.92-4  c14-0,29,1,43.68,1c-8.47-4-3-2-7.92-5c2-0,5-0,8.16-0  c-3-7,2-9,10.32-11c-4,42,63,17,82,13c42-9.23,87,1.76,127-9.13"/>
   <path d="M528,385.64c24-1,47,2,72-1.92c0.39,0.48,24,8,33,11c-8,2-19.85,7-27,10  c2,5,8,6,18,1.2c-68,29.58-148,13-220,13c-73,0-151,16-221-13"/>
   <path d="M635,388C637,388,636,388,635,388"/>
   <path d="M307.54,385C308,384,308.32,384,307.54,385"/>
   <path d="M317.62,382C317,382,319,380,317.62,382"/>
   <path d="M305.62,388C306,386,306,386,305.62,388"/>
   <path d="M320.26,376.04C319,376,318,376,320.26,376.04"/>
   <path d="M333.46,374C335.96,375.62,333,374,333.46,374"/>
   <path d="M309.22,383C310,382,311,382.27,309.22,383"/>
   <path d="M314.74,378.2C316.15,377,317,377,314.74,378.2"/>
   <path d="M276.58,390C277.39,391,276,390,276.58,390"/>
   <path d="M311.38,382.52C311,381,311,381,311.38,382.52"/>
   <path d="M299.86,392C296,391.28,300,392,299.86,392"/>
   <path d="M312.1,379.16C313,378.9,314,378,312.1,379.16"/>
   <path d="M215.86,402C216,401,213,403,215.86,402"/>
   <path d="M346.18,406C341.48,405,344,405,346.18,406"/>
   <path d="M626,398C627,398,626,399,626,398"/>
   <path d="M264.58,398C264,398,266,399,264.58,398"/>
   <path d="M286.42,207C286,206,286,206,286.42,207 M286.18,208C286.26,207,286,207,286.18,208"/>
   <path d="M292.9,362c0-0.12-3-5,4.8,0.48C299,365,294,361,292.9,362 M299.62,363  C299,363,301,362.25,299.62,363 M278.74,293c8.75,1,17,16,24,7.44  c-7,9-1,31-14.16,32c-0-3,13,57,2.64,24C270,351,270,307,278.74,293  "/>
   <path d="M479,155C484,159,490,162,479,155"/>
   <path d="M613,301.87C613.63,299,613.71,300,613,301.87"/>
   <path d="M664,333C664,332,664,332,664,333"/>
   <path d="M686,296.83C685,296,685,295,686,296.83"/>
   <path d="M663,276C662,274,662,274,663,276"/>
   <path d="M522,359C522,359,522,359,522,359"/>
   <path d="M688,301.15C689,298,689,298,688,301.15"/>
   <path d="M657,332C658,330,658.43,330,657,332"/>
   <path d="M664,332C665.08,331,665,331,664,332"/>
   <path d="M651,270C651,269,651.35,269,651,270"/>
   <path d="M652,270C653,269,653,268,652,270"/>
   <path d="M650,323C650,324,651,320,650,323"/>
   <path d="M666,281C668,280,667,281.25,666,281"/>
   <path d="M657,334C667,336,659,341,657,334"/>
   <path d="M656,270c16-0-1,2,7,9c6,0,10-3,11-10  c5,20,23,34,1,52c-7.13,6-19,12-22,1c-0-0,0.13,0.32-3-0.48  c0-0,5-4,4-6c-5,6-32,6-42.96,3.6c-2-7-1-13,2-17  c-0,0,0,1.31,0.48,1.44c-1-9,12-13.29,23-21"/>
   <path d="M637,281c-0.38,0,20.99-11,18.96-11"/>
   <path d="M431.62,139.61c-4,2-7,1-12,3C421,141,428,140.12,431.62,139.61"/>
   <path d="M482,159C484,159,486,160.97,482,159 M484.42,154c4,3,8,0,5,7  C485,160,483,158,484.42,154"/>
   <path d="M264.1,196C264,195,265,195,264.1,196 M259.3,188C259.27,186,259.27,186,259.3,188   M257.86,193C257,193,257,191,257.86,193 M262.18,192C261,191,261,191.54,262.18,192   M257.38,192C257,191,257,189,257.38,192 M260.98,191  C260,189,260,188,260.98,191 M256.66,187C257,187,259.64,186.41,256.66,187 M262.9,195  C262,193,262,193,262.9,195"/>
   <path d="M497,189C497.17,187,497,187,497,189"/>
   <path d="M573,197C573,194,573,195,573,197 M568,188c5,3.45,7,6,7.92,12  c-11-15,0-2.4-4.56-2.4C572,198,569,196,568,188"/>
   <path d="M290.02,216.66C289,216,289,216,290.02,216.66"/>
   <path d="M408.82,134C412,136,417,140,408.82,134"/>
   <path d="M235.78,205C235,204,234,215,235.78,205"/>
   <path d="M407,219.3c0,4,3,10-1,12C405,227.26,406,223,407,219.3"/>
   <path d="M284.74,175C284,174,284,174,284.74,175"/>
   <path d="M567,186C571,185,580,184,567,186"/>
   <path d="M272.5,280c-0.64-3-1.28-7-1.92-11c11-2,22,6,23.04,19  C278,300,271,297,272.5,280"/>
   <path d="M433,151c0-0.5-3-4-3.12-4C440,148,434,149,433,151"/>
   <path d="M442,284c14,0,25,12-1.2,18C442.1,297,442,291,442,284"/>
   <path d="M305.14,247C305,246,305,245,305.14,247"/>
   <path d="M313.3,305C313,304,313,304,313.3,305"/>
   <path d="M306.34,244C306,243.83,306,243,306.34,244"/>
   <path d="M307.3,245C307,245,307,243,307.3,245"/>
   <path d="M305.62,245C305,245,305,244,305.62,245"/>
   <path d="M304.66,246C305,245,305,245,304.66,246"/>
   <path d="M303.7,248C304,247,305,244,303.7,248"/>
   <path d="M306.82,244C306,244,307,243,306.82,244"/>
   <path d="M307.78,245C307,245,308,244,307.78,245"/>
   <path d="M306.34,249c1-1-3-4,4.08-3C309,249,307,247,306.34,249"/>
   <path d="M286.9,233c4,9,10,10,17.52,1.92c2,4.87,1,9.19-2.4,12c1,0,2,0.11,3.6-1.44  c-0,2,0,1-1.2,2.88c-0,0,13-3,13.68,1.2c39-5-7,52.62-10.08,63  c-0.27,0,1-5,2.16-4.32c-0,0-1,0-1.44-0.48c-9,23-9-16-12.77-21  c-7-12-33-23.68-31.39-32"/>
   <path d="M264.58,255c6-18,12-9,22.32-22"/>
   <path d="M623,234C624,235,623,235,623,234 M623,234  C621,236,622,235,623,234"/>
   <path d="M450.34,149c-0,1,8,11-4,4.76C439,148,441,146,450.34,149"/>
   <path d="M397.54,215c4-2,8-0,10.32,3.84c-2,1-6,3-9.84,5  C392,221,392,218,397.54,215"/>
   <path d="M459,254c1.19-3-1-4,1.92-4C463,252,460,252,459,254"/>
   <path d="M447,124c2.8,1.92,5,3.84,8.4,5c-3,4-8,5-14.4,3.84  C442,127,442,127.96,447,124"/>
   <path d="M601,223.38C601.52,222,601,222,601,223.38 M605,213c0,1,2,4,0.72,7  C595,219,599,217,605,213"/>
   <path d="M429,216.66c0,8,2,16,4.08,24c-5.67-0-10-2-14-6  C425,230,428,224,429,216.66"/>
   <path d="M287.38,110C287,109,287,109,287.38,110"/>
   <path d="M306.1,123C306,122,306,122,306.1,123"/>
   <path d="M289.54,109C288,108,289,109,289.54,109"/>
   <path d="M276.34,124C276,124,279,122,276.34,124"/>
   <path d="M276.34,124C276,124,278,122,276.34,124"/>
   <path d="M278,124C279,123,278,123,278,124"/>
   <path d="M194,138.65C186,132,193.5,137,194,138.65"/>
   <path d="M276.58,109c4-2,0-6,8.4,0C282.18,109,279.38,109,276.58,109"/>
   <path d="M280.42,105C280,104,280,104,280.42,105"/>
   <path d="M282.58,105C281,104,281,104,282.58,105"/>
   <path d="M193,135C195,135,193,135,193,135"/>
   <path d="M309.94,127C310,127,310,126,309.94,127"/>
   <path d="M299.38,101C296,100,299,101,299.38,101"/>
   <path d="M301.78,78c-12-1,6-0,9.84-0.24c-4-1,13-2,21.6-0.72c-10,0-7,0-12,1.68  c2-0.8,4-1.04,6.96-0.72c-13,3-13,3-8.88,2.16c-3,0-5,0.64-8.88,0.72  c1,0,1,0-1.2,0.24c6,0,4,0-1.68,0.48c1,0,3,0,4.8,0.48  c-3,0-8,2-11.76,2.4c0-0,5,0,5.04,0.72c-5,0.49-10,0.48-15.6,0.48  c9-2,10-2,9.12-2.16c-0-0-1-0-1.68,0c3,0,1-0-1.92-0.48  c2-0.71,5-0,8.64-1.2c-2-0-4,0-4.08-1.68c1,0,1,0,0,0  c10,0,2-0,13.2-1.2c-4,0-3-0,0.48-0.72c-4,0-19.12,2-6.96,0.24  C296,79,301,78,301.78,78"/>
   <path d="M280.66,101C281.13,100,281,100,280.66,101"/>
   <path d="M293.86,102C296,101,299,99,293.86,102"/>
   <path d="M191,137.93C191,137,191,136.8,191,137.93"/>
   <path d="M256.42,100C255,99,256,100,256.42,100"/>
   <path d="M297.7,100C298,99,298,99,297.7,100"/>
   <path d="M260.5,100C260,99,261,99,260.5,100"/>
   <path d="M294.1,81c-6-0-4,0-6.24-0.96c0,0,2-0,3.6-0.48c-0.36-1-6,1,0.96-0.72  c-5,0,5,0,8.4,2.16C294.44,82,286,86,294.1,81"/>
   <path d="M187,130C191,126.74,189,128,187,130"/>
   <path d="M262.66,99C262,100,263,98,262.66,99"/>
   <path d="M192,129C192.3,128,192,128,192,129"/>
   <path d="M292.42,99C294,98,295,98,292.42,99"/>
   <path d="M277.54,98C278,98,278.34,98,277.54,98"/>
   <path d="M296.02,99C296.11,98,296,98,296.02,99"/>
   <path d="M269.62,98C269,98,269,97.87,269.62,98"/>
   <path d="M262.66,98C262,98,263,97,262.66,98"/>
   <path d="M192,130C192,128.56,192,129,192,130"/>
   <path d="M270.1,98C269,98,271.22,97,270.1,98"/>
   <path d="M215.38,99C214,101,217,94,215.38,99"/>
   <path d="M293.86,98C295,97,296,97.66,293.86,98"/>
   <path d="M292.42,98C291,97,292,98,292.42,98"/>
   <path d="M267.7,100C266,96,267,99,267.7,100"/>
   <path d="M193,130C194,129,194,129,193,130"/>
   <path d="M191,130C191,129.16,191,129,191,130"/>
   <path d="M289.54,86C289,85,290,85,289.54,86"/>
   <path d="M297.94,142.73C300.4,141.5,298,142,297.94,142.73"/>
   <path d="M193,131C193,131,193,129,193,131"/>
   <path d="M271.54,131C269,129.99,270,130,271.54,131"/>
   <path d="M192,131C192,130.57,192.5,131,192,131"/>
   <path d="M188,132C188,129,188,130,188,132"/>
   <path d="M193,131C193,131,193.76,131,193,131"/>
   <path d="M265.78,96C265,95,265,96,265.78,96"/>
   <path d="M193,132C195,131,195,131,193,132"/>
   <path d="M263.14,92C263,92,265,88,263.14,92"/>
   <path d="M271.78,86C271,86,272,85,271.78,86"/>
   <path d="M298.42,146C300,144,299,145,298.42,146"/>
   <path d="M272.5,132C272,132,273,132,272.5,132"/>
   <path d="M192,133C192,132,193,132,192,133"/>  
   
     <path d="M284.74,81C283,79,284,81,284.74,81"/>
   <path d="M296.02,145C293,142,295,144,296.02,145"/>
   <path d="M272,86C272.02,86,272,86,272,86"/>
   <path d="M192,134C192,133,192,133,192,134"/>
   <path d="M249.7,87c-0,0.15,6-2,9.6-2.64C256,86,253,87,249.7,87"/>
   <path d="M301.78,87C301,87,303,86,301.78,87"/>
   <path d="M260.5,86c7-1,14,0-5.76,2.4c10-3,2-0-2.88-0.96C255.63,85,252,87,260.5,86"/>
   <path d="M311.62,133c-5.18,5-2,4,2.16,4c-1.15,3-2,0,0.24,1.2c0,11-4-5,0,1.2  c-0,0,0.09,1,0.24,1.44c-0,1-1,2-2.4,1.92c0-4-0-0.64-3.84-0.72  c-1-1,8-1-5.04-1.44c2-1,2-1,0.48-1.92C306.18,137.93,308.9,135,311.62,133"/>
   <path d="M305.38,112C305,112,305,113.12,305.38,112"/>
   <path d="M282.82,113C283,112,284,110,282.82,113"/>
   <path d="M304.9,113C305,113,305,112,304.9,113"/>
   <path d="M304.9,115C303,115,304,115,304.9,115"/>
   <path d="M297.94,111C297,110,297,111,297.94,111"/>
   <path d="M298.66,116C299,115,299,115.31,298.66,116"/>
   <path d="M277.54,112C281,110,282,110,277.54,112"/>
   <path d="M292.42,111C291,110,293,111,292.42,111"/>
   <path d="M306.58,111C306.45,111,306,111,306.58,111"/>
   <path d="M271.3,87C272,87,273,86,271.3,87"/>
   <path d="M283.06,83C281,84,289,80,283.06,83"/>
   <path d="M297.7,92C294,94,306,87,297.7,92"/>
   <path d="M290.74,84C289,82,291,85,290.74,84"/>
   <path d="M272.26,90c1,1,1,3,2.4,2.16c-1,2-3,2-7.92,0.72  C267,92,270,90,272.26,90"/>
   <path d="M273.7,90C270,91,278,88.64,273.7,90"/>
   <path d="M268.66,88C267,89,271,87,268.66,88"/>
   <path d="M276.82,93c0.71-0,0-3,8.16-3C280,91,278,92,276.82,93"/>
   <path d="M266.26,83C260,84,274,80,266.26,83"/>
   <path d="M263.62,84C264,84,270,82,263.62,84"/>
   <path d="M275.14,86C276,85,278,85,275.14,86"/>
   <path d="M261.7,84C261,84,262,82,261.7,84"/>
   <path d="M235.78,93c6-2,9-4,15.36-1.92C242.9,94,235,93,235.78,93"/>
   <path d="M292.18,92c5,0,4-1,1.92,1.92c3-0,4-0,8.64-0.96c-3,0-3,1-0.48,0.72  c-2,0-2,1,1.2,0.24c-0,0-2,1-2.16,1.2c0-0,1-1,2.4-0.96  c0,1-3,0,2.88,0.96c-2.76,3-3,0,0.48,0.24c-0.62,0-2,1-2.64,1.44  c1.22-0,0-0,0.24,0.48c10-2-2-0,5.04-0.96c-1.29,0-2,0-3.84,1.2  c0-0,1-0,2.88-0.48c0,1,2-1.03-2.64,1.2c6,3-1,1.2,2.4,1.2  c-0,0-1.77-0-2.16,0c1,0,5,1,4.56,3.12c1-0,1-0,0,0.24c4,0.35,0-0,4.56,0.72  c-0,0-0,0-0.48,0.48c-4,2.6-8,2-10.32,0.24c1,0,7,9-3.36,4.8  c0,1,2,1,3.12,3c-7-1-6-1-8.64-3"/>
   <path d="M295.78,108c-2-0-7-1-6.48-1.68c5,1,10,0,14.64-2.88c-9-4-9-2-22.8-8  c0-0,1-0,3.36,0c-0-0-1-1-3.12-0.72c3-2.12,6-3.48,10.32-4  c-17,14-4,1-4.32,4c0-2,2-2,4.8-3"/>
   <path d="M286.66,84C279,82,289,85,286.66,84"/>
   <path d="M251,87C250,88,256,85,251,87"/>
   <path d="M298.9,138.89C293,134,299,139,298.9,138.89"/>
   <path d="M260.26,85C256,84,261,86,260.26,85"/>
   <path d="M195.94,137.93C195,137,195,137,195.94,137.93"/>
   <path d="M279.46,84C276,81,274,80,279.46,84"/>
   <path d="M287.38,85c-2,1,4,2,13.44,1.92c-1,0-1,0,0.24,0  C292,90,272,85,287.38,85"/>
   <path d="M312.82,141.05C312,140,312,141,312.82,141.05"/>
   <path d="M274.18,88C269.44,85,285,84,274.18,88"/>
   <path d="M274.42,92C274,91,275.31,91,274.42,92"/>
   <path d="M272,85C272,84.43,272,83,272,85"/>
   <path d="M276.82,84C275,84,280,82,276.82,84"/>
   <path d="M280.9,89C278,85,281,89,280.9,89"/>  
   
     canada need fixing  
     <path d="M250.42,92c7,1,5,0,12.48-0.72c-0,2-0,3,1.44,5c-1,1-3,0-4.56,0.96  c0,0.27,0,0.59-0.24,0.96c-0,0,2-0,2.16-0.24c-22,2-26,1-11.52-1.92  c-2-0-5-0-8.16-1.2c1-0,3-0,5.52-0.96c-1-0-3,0-4.56,0.24  C242,95,247.52,93,250.42,92"/>  
   <path id="canada" d="M272.5,148c-4.88,1.84-9.76,3.68-14.64,5c8-24.11-50-15-60-15c-0-1-2-2,0-4  c0-0-3,1-3.12,0.72c0,0,0,0,1.92-1.2c0,1-3-0.04-3.36,0c1-0.85,1.5-2,3.12-1.92  c-0-0-4-1,0-2.4c-4.51-2,4-10-7.68-14c6-9,51-22,29.04-16  c2-0,6-0.82,4.08-0.48c0-0,10-1,9.84-1.68c1,0.38,13,7,9.36,3.84  c7-2,10-0,9.12,2.88c1-1,3-3,6-4c-1,0-4,1-5.04,0.72  c-44-1,26,1,14.4,0.72c0-0,7.13-3,1.68,1.92L
     266.26,103c5-3,4-3,7.2-5c0-7-11,9,2.64-4c-0.68,3-1,2-1.44,4  c0,0,6,0,1.44,2.88c4,1,3,0,13.92-1.92c-2,2-9,4-7.44,4  c1-0-7,1-11.28,1.92c5,5,3,3-6.24,3c1,0,2.54,1,3.6,1.2  c-27,0,2,19,0.72,24c4-2,15-26,28.32-20c-1,1-1,4-3.36,4  c2.04-0,0,2,6.24,0
     L300.58,118c6-6,1,6,10.32,8c-2,0.28-4,0.76-6.24,1.44c-0,0,10,21,7,0  c0,2-26.55,10-28,10c1,0-16,6,11.28-0.96c-0,1,9,2.43-4.56,1.92  c1.92,1,5,4,8.16,5c-3,1-6,2-9.6,3c0-0-0-0-0.48-0.48  c1-1.09,3-2,5.76-3c-2,0-2,0-0.96-0.96c-8-1-7-1-20.88,2.88"/>
   <path d="M355.54,208C355,208,355,207,355.54,208 M358.66,212C357,211,357,211,358.66,212   M356.98,213C356,212,356,212,356.98,213 M359.86,210  C359,210,359,209,359.86,210"/>
   
     <path d="M446,221.22c3.12,4.32,6.24,8,9.36,12c-8-1-15,0-21.6,6  C431,229.63,435,223.31,446,221.22"/>
   <path d="M431,195c24,4,17,40-1,28C430,219,429,205,431,195"/>
   <path d="M277.78,348C277.36,349,278.77,347,277.78,348"/>
   <path d="M275.14,340C274,340,275,339,275.14,340"/>
   <path d="M279.22,356C279.6,355.55,279,356,279.22,356"/>
   <path d="M291.22,363C291,363,292,362,291.22,363"/>
   <path d="M276.34,350C276,350,276,349,276.34,350"/>
   <path d="M275.38,345C274,344,274.74,344,275.38,345"/>
   <path d="M277.78,351C277.15,351,277,351,277.78,351"/>
   <path d="M295.78,364C293,363.53,293,363,295.78,364"/>
   <path d="M290.5,364C289,363,290.21,363,290.5,364"/>
   <path d="M291.22,358c-1,2,0,6-3.84,3.84C292,363,291,362,291.22,358"/>
   <path d="M280.42,354C279,354,278.81,353,280.42,354"/>
   <path d="M276.82,350C275,348,275,348,276.82,350"/>
   <path d="M287.62,362C286.18,360,287,361,287.62,362"/>
   <path d="M279.7,355C279.89,354,279,354,279.7,355"/>
   <path d="M275.38,342C276,342,276,342,275.38,342"/>
   <path d="M281.62,357C281.24,356,280,356,281.62,357"/>
   <path d="M289.54,362C288,360.21,288,361,289.54,362"/>
   <path d="M281.86,358C281,357,281,357,281.86,358"/>
   <path d="M275.14,339C273,333,274,337,275.14,339"/>
   <path d="M277.3,342C277,341,276,340,277.3,342"/>
   <path d="M277.3,344C276,343,276,343,277.3,344"/>
   <path d="M279.7,356C280,355,280,355,279.7,356"/>
   <path d="M277.78,350C277,349,277,349,277.78,350"/>
   <path d="M280.42,357C280,357,279,356,280.42,357"/>
   <path d="M277.78,352C276,352,277,352,277.78,352"/>
   <path d="M285.7,361C285,361,282,357,285.7,361"/>
   <path d="M277.06,351C276,350,276,350,277.06,351"/>
   <path d="M282.58,358C281,357,281,357,282.58,358"/>
   <path d="M276.58,343C275,342,275,342,276.58,343"/>
   <path d="M294.82,364C290,363,291,363,294.82,364"/>
   <path d="M278.98,353C278,352,276,349,278.98,353"/>
   <path d="M278.5,354C277,353,277,353,278.5,354"/>
   <path d="M275.38,342C275,341,275,341,275.38,342"/>
   <path d="M275.86,344C275,343,275,343,275.86,344"/>
   <path d="M279.7,355C278,354.52,279,354,279.7,355"/>
   <path d="M276.82,349C276,348,276,349,276.82,349"/>
   <path d="M282.58,358C282,358,282,358,282.58,358"/>
   <path d="M277.06,349C276,348.79,276,348,277.06,349"/>
   <path d="M288.58,362C286,360,288,362,288.58,362"/>
   <path d="M278.5,354C278,354,278,354,278.5,354"/>
   <path d="M284.5,360C281,359,281,359,284.5,360"/>
   <path d="M270.1,284c21.42,12.07-8,64,20.88,73.21c-1-0-2,0-3.12,3.36c-1-1-2-2-1.92-0.96  c0-0,0-0.09,0.96,0c-1-0-0-0-2.88-0.96c-0,0,2-0,2.4-0.96  c-1-0-2.81-1-1.92,0.96c-0-1-2-3-1.92-3.36c-0,0-4-4.48-2.88-6  c-4-2,0-1-5.04-2c0.24-0.08,0.32,0,0.24,0.24c-0-0-0-1,0.48-2  c1,1,1,0,2.64,0c-2,3-2,0-1.68-10c-6,3-4-37-4.56-32"/>
   <path d="M271.78,302.11c-0-5-0-10-1.68-17"/>
   <path d="M626,176C624,175,625,176,626,176"/>
   <path d="M628,180C627,179,627,179,628,180"/>
   <path d="M610,205c0-1-3-2,1.44-4C612,204,610,203.61,610,205"/>  


   <path id="China" d="M601,136.97c0-17,25,0,30,10c-0,2.35-4,9-13,13  c0-0,0-0,0-0.24c5,1-3-6-2.16-4c-0.35,0.73-4,5-4,5  c15,2,7,4,13.92,15c-1,0-3-0-4.56-1.44c7,5,4,26-11,26  c-3-5-14-6-18.96-3
     L591,197c-15-28-62-13-50.64-50c7-13,45,6,66-3  c-20-5-3-5-5.52-7"/>
     <path d="M267.22,219.3c-4,11,5,10,7.2,23c-7,3-3-1-5.28,11  C262,247,235,224,267.22,219.3"/>
   <path d="M488.02,271C487,271.17,487,271,488.02,271 M485,270C485,269.14,485,270,485,270  "/>
   <path d="M438,237c0,9-4,15-12.72,18C431,247,424,239.05,438,237"/>
   <path d="M239,220.98c3,0.55,5,2.79,5.04,6C242,225,240,223,239,220.98"/>  
     <path d="M428,147C427,146,428,147,428,147 M428.26,148  C427,147,427,146,428.26,148 M434.02,152C437,154,431,150,434.02,152   M431,144c4,3,7,3-1,2.88c0.21,0,3,4,3.84,4  C418,145,429,148,431,144"/>
   <path d="M247,198C247,197,247,196,247,198 M243.7,197c7-2,14-1,19.92,3.84  C259,199,249,196.71,243.7,197"/>
   <path d="M463.06,170C463,169,463,166,463.06,170"/>
   <path d="M423.22,136.25c4-1,7-0,11.52,1.68C429,141,427.77,137,423.22,136.25"/>
   <path d="M419.14,126C418,126,418,126,419.14,126 M420.34,127C420,126,420,125,420.34,127   M421.54,127C421,125,421,127,421.54,127 M416.74,123  C417,122,417,122,416.74,123 M420.1,125C419,126,418,126,420.1,125 M427.3,126  C426,125,427,126,427.3,126 M421,124C422,125,423,130,421,124   M418.42,126c-1-3-3-3,0-4c0-0-2-0-2.4,0.72  C421,121,419,121,418.42,126"/>
   <path d="M482,220.74C487,216,484.27,219,482,220.74"/>
   <path d="M286.66,212C286,210,286,211,286.66,212"/>
   <path d="M267.94,203c1,0,3-2,6.24,0.96C269,206,268,203,267.94,203"/>
   <path d="M228.34,247C228,245,227,243,228.34,247 M227,246C227.62,245,227.62,245,227,246   M229.3,245C228,245,229,245.77,229.3,245 M230,246C229,245,229,246,230,246   M231,247C231,247,231,246,231,247 M249.46,251  C249.7,250,249,250,249.46,251 M252.34,242c4,5.92,9,5-0.48,13  c-1-0-4-6.75-4.08-6.24C249.3,247,250.82,244,252.34,242"/>
   <path d="M465,177c-2,2,5,15-2.88,2.88c15,20.43-20,22-13.92-3  C454,176,460,176,465,177"/>
   <path d="M233.38,213C237,218,234,214,233.38,213"/>
   <path d="M422,240C422,242.74,422.39,243.67,422,240"/>
   <path d="M479,211C478,210.3,479,211,479,211 M482,214c-3,0-6,0-10.08-0.96  c-0,3,2-10,3.36-7C476,210,479,213,482,214"/>
   <path d="M437.62,120C437,120,438,117,437.62,120 M438.1,119C438,118,438,118.05,438.1,119   M446,117C442,119,434,122,446,117"/>
   <path d="M483,217.86c2,4-1,7,11,9C464,262,462,196,483,217.86"/>
   <path d="M306.1,358C306,356,308,354,306.1,358 M345.22,363C340,359,345,363,345.22,363   M303.94,358c0-0-0-1-0.24-1C306,355,304,356,303.94,358"/>  
     <path d="M392,112C392,111,392,111,392,112 M393.22,112  C392,111,392,112,393.22,112"/>
   <path d="M739,286C739,286,740,285,739,286 M739,284  C740,283,740,282,739,284 M741,281C743,280,745,279,741,281"/>
   <path d="M433.54,116C433,115,433,115,433.54,116 M437.62,116C437,116,438,115,437.62,116   M441,97c7,6,7,11,1,17c-4,1-4-11-11-16  C436,100,437,98,441,97"/>
   <path d="M419,155C418.9,152,418,150,419,155 M408.1,135c10,5,12,22-8.16,15  c0-5,2-6-4.8-9c0-0,0-0,0-0.48C405,137,394.53,140,408.1,135"/>
   <path d="M299.38,238c2-1.41,0-6,4.56-3.12C301,242,298.25,238,299.38,238"/>
   <path d="M121,283C119,282,120,283,121,283"/>
   <path d="M424,240c7,5,8,9-0,13C419,248,420,244,424,240"/>
   <path d="M371.62,215C381,216,370,215,371.62,215"/>
   <path d="M466.42,176C465,177,465,177.28,466.42,176"/>
   <path d="M472,150c-9-2,12,1,12,5C480,155,476,154,472,150"/>
   <path d="M426.1,128C425,128.71,424,128,426.1,128 M424,128C425,126,424.85,127.52,424,128   M418.42,126c5,0,8,2,9,8c-0.28,0-1,3-2.4,6.96  C409,143,414,128.42,418.42,126"/>
   <path d="M397.78,221.22c13.31,6,7,9-0.48,12C397,229,397,225,397.78,221.22"/>
   <path d="M440,162C439,161,439,161,440,162 M447,169  C448,167,448,168.22,447,169 M447,163C447,162,447.36,162,447,163   M440,163C440,162,440,163,440,163 M449.62,162  C449,161,449,161,449.62,162 M451.06,163C450,162,451,163,451.06,163   M438,159C437,158,438,158,438,159 M448,165  C448.84,164.31,448,164,448,165 M450.1,160C448,158,449,160,450.1,160 M453,167  C453,165,453,165,453,167 M446,162C443,160,444,160,446,162   M447,158C447,158,447,158.13,447,158 M446,157  C446.57,156,446,156,446,157 M449.14,154c-4,1-2,5-5,2.4  c1,4-1.36,2,2.88,6.48c-1-0-2,0-1,2c-8-5-0-1-0-3  c-2-0-4-1-6-3.36C442.1,157,445.62,156,449.14,154"/>  

     <path d="M379.54,80C378,80,381,79,379.54,80"/>
   <path d="M375.46,90C373,91,378,88,375.46,90"/>
   <path d="M379.54,87C379,85,379,85,379.54,87"/>
   <path d="M380.5,88C377,86,380,88,380.5,88"/>
   <path d="M376.9,89C377,88,377,88,376.9,89"/>
   <path d="M381.22,82C382,81,381,81.8,381.22,82"/>
   <path d="M330.1,115C329.83,115,331,114,330.1,115"/>
   <path d="M332.02,114C332,114,334,114,332.02,114"/>
   <path d="M333.7,116C334,115,334,115,333.7,116"/>
   <path d="M336.34,116C335,115,336,117,336.34,116"/>
   <path d="M335.86,116C335,116,336,116.34,335.86,116"/>
   <path d="M344.26,107C344,107,343.06,106,344.26,107"/>
   <path d="M348.34,105C349.61,105,349,105,348.34,105"/>
   <path d="M340.42,111C340,110,340,110,340.42,111"/>
   <path d="M313.54,84C312,83.72,313,85,313.54,84"/>
   <path d="M379.3,83C377.07,83,378,83,379.3,83"/>
   <path d="M380.74,84C380,84,382,83,380.74,84"/>
   <path d="M379.3,82C379,82,380,82.29,379.3,82"/>
   <path d="M331.3,95C331,95,332,94,331.3,95"/>
   <path d="M351.22,77C345,74,353,78,351.22,77"/>
   <path d="M330.1,95C330,95,331,94,330.1,95"/>
   <path d="M314.74,84C313,84,318,84,314.74,84"/>
   <path d="M342.1,110C340,109,341,109,342.1,110"/>
   <path d="M343.54,77C339,76.47,344,78,343.54,77"/>
   <path d="M370.66,92C370,92,372,89,370.66,92"/>
   <path d="M364.9,96C366,96,371,94,364.9,96"/>
   <path d="M328.42,98c0-0-0-0-0.72-1.44C332,97,328,97,328.42,98"/>
   <path d="M374.02,92C368,91,371,92,374.02,92"/>
   <path d="M331.3,94C331,94,331,94,331.3,94"/>
   <path d="M332.26,98C332,97,333,96,332.26,98"/>
   <path d="M373.3,93C368,91,373,93,373.3,93"/>  

   <path id="Greenland" d="M365.86,76c-5,0,14,0,12.96,0.72c-2-1-9,0-13.2,0.96c24.72,1-8,0.53,12.24-0.24  c-0.06-0-3,2-3.6,1.92c4.92-0,9.88-1,14.88-1.44c-35,4-3,0-5.04,1.44  c-1,0-4,0-5.76,0.96c-0,0,8-0,4.08-0.24c-2,0-4,2-6.48,3  c0,1,2,1,3.84,0.24c-2,0-3,0,0.72,0.48c-2-0-4-0-6,0.96  c-0,0,3,0,3.6,0.72c-2.37,2-4-1,0.24,1.44c-1,0-3-0-4.08-0.24  c3,2,2.02-0,0,0.48c1,0,2,1,4.32,1.2c5-1-6,0.72-4.8,0.72  c-0-0,4.7,1,2.88,0.48c-1,0-8,1-10.08,1.2c-0.08,1.28,1.04,1.36,3.36,0.24  c-2-2,0,1,3.84,2.64c-15,0,97,27-9.12-0.96c-0,1,3,0,4.08,1.2  c-2-0-4,0-5.52,1.68c15,0-19,0,9.6,0.48c-10,5-25,2.92-32.16,13
     L340.66,110c-2,3.5-4,4-3.36,5c-1-0.26-2-0-3.12,0c0-1-1-0-0.24-1.92  c-6,0-5.5-4-6.72-6c3-2.08,4-1-0.48-0.48c-0,0,3-2,3.36-2.64  c-5-0-5,0,0.48-2.16c-10,1,0,1-4.08-0.24c10,0,0-0,0-0.48  c1-0,3-0,6-0.72c-2,0-2,0-0.48-0.24c-1-0-3,0-5.04,0.24  c-0,0,1-0,0.96-0.24c5-1-11,0,4.56-0.24c-0-1-3,0-4.32-0.72  c1-0,4-1,5.28-1.44c-3-3,6,2-5.04-2.88c1.85,0,3,0,5.52,0.48  c-1.6,0-0-2-0.48-2.4c-2.21-0-3,0.24-5.76,0.24c3-2,3-3.59,0.72-6
     L328.42,88c-9-1-12-1.46-14.64-2.88c7,0,8-1,3.12-0.24c1,0,2,0,4.08-0.24  c-2-0-5-0-7.68-1.2c12-2.85,16-6,9.6-3c12-2,11-3,22.8-1.92  c6-1,5,1,5.28-1.44c3-0,15,1-0.96-0.48c4,0,5,0,1.68,0  c26-1,0,0,8.88,0c-0,0.05-67.13-2,13.68-0.24c-2.8,0.08-5.6,0.16-8.4,0.24"/>


     <path d="M285.46,219.06C286,218,285,218,285.46,219.06"/>
   <path d="M286.18,210C286,209,286,209.53,286.18,210 M286.9,209C287,209,286,209,286.9,209"/>
   <path d="M230,207c0,0.55,12,4,2,6C226,214.9,225,212,230,207"/>
   <path d="M419,238C419,237.75,419,236,419,238 M377.14,217.62c9-0,12,3,9.12,11  C381.2,229,373,223,377.14,217.62"/>
   <path d="M371.38,218.34C378,221,375.99,220,371.38,218.34"/>
   <path d="M288.58,227c9,8,10,13,1.68,15C287,237,286,232,288.58,227"/>
   <path d="M265.78,204C264,203,264,203,265.78,204 M267.94,202C261,208,265,204,267.94,202  "/>
   <path d="M235,211c3.04,0.32,6.08,0.64,9.12,0.96C239,216,239.35,217,235,211"/>
   <path d="M616,196C618,197,616,196,616,196"/>
   <path d="M440,140.33c-1,4-5,5-9.84,3.36C430,139,433,138,440,140.33"/>
   <path d="M372.34,104c4-0,8,0,11.28,1.68c-8,4-13,2-15.6,0.48  C372,104,366,104,372.34,104"/>
   <path d="M579,218.58C579,220,579,219,579,218.58"/>
   <path d="M582,230C582,229,582,229,582,230"/>
   <path d="M579,222.18C579,221,579,221,579,222.18"/>
   <path d="M543,168c8,6-5.89,6.94,12,16c9,5,21-4,27,1  c-1,3.72-3,7-5,11c-3-5-3-4-10-10c1,5-9-22,3.12,10  c-1-1,1,3-0.96-1.2c-2,1,2,2-1.68-0.48c-4,9.13-15,14-12,28  c-18,2-4-29-22.56-28C534.91,194,534,173,543,168"/>
   <path d="M579,217.14C579.72,220,580,213,579,217.14"/>
   <path d="M666,263C669,260,668,261,666,263"/>
   <path d="M654,248C653.85,246,653,246,654,248"/>
   <path d="M593,249C592,245.15,593.12,248,593,249"/>
   <path d="M613,247C613,247,613,246,613,247"/>
   <path d="M594,251C595,249,595,250,594,251"/>
   <path d="M623,264C623,262,623,262,623,264"/>
   <path d="M594,250C594,249,593,249,594,250"/>
   <path d="M610,252C609,251.05,609,250,610,252"/>
   <path d="M639,254C638,253,638,253,639,254"/>
   <path d="M644,250C644,249,644,248,644,250"/>
   <path d="M651,262C651,261,651,261,651,262"/>
   <path d="M643,262C645,261,646,261,643,262"/>
   <path d="M664,249C662,246,665,250,664,249"/>
   <path d="M637,268C638,267,639,267,637,268"/>
   <path d="M635,268C635,268,636,267,635,268"/>
   <path d="M641,249C642.88,248.98,644,248,641,249"/>
   <path d="M632,267C630.38,263,632,266,632,267"/>
   <path d="M640,265C652,267,635,264,640,265"/>
   <path d="M638,263C638,263,639,262,638,263"/>
   <path d="M638,257C638,255,639,254,638,257"/>
   <path d="M607,251C604,247,605,248.65,607,251"/>
   <path d="M595,252C595,250.76,595.52,251,595,252"/>
   <path d="M625,264C625,263,625,263,625,264"/>
   <path d="M653,253C644,249,649,251,653,253"/>
   <path d="M640,263C640,263,640,262,640,263"/>
   <path d="M638,263C639,263,640,262,638,263"/>
   <path d="M668,263C668,262,668,262,668,263"/>
   <path d="M640,263C641,263,643,261,640,263"/>
   <path d="M647,262C647,262,647,263,647,262"/>
   <path d="M626,264c1-0,1-2,3.6-1C631,264,629,263,626,264"/>
   <path d="M637,256C637,256,637,253,637,256"/>
   <path d="M634,264C631,267,641,257,634,264"/>
   <path d="M603,246C603,245,603,245,603,246"/>
   <path d="M587,239C586,238,587,239,587,239"/>
   <path d="M604,245C603,244,603,245,604,245"/>
   <path d="M647,246C647,245,647,245,647,246"/>
   <path d="M591,246C592.33,245,591,246,591,246"/>
   <path d="M599,243C599.13,242,598,241,599,243"/>
   <path d="M645,236C646,234,646,235,645,236"/>
   <path d="M648,247C647,245,647,245,648,247"/>
   <path d="M636,256C636,255,636,255,636,256"/>
   <path d="M608,258c9-2,14-0,14.16,6C616,264,611,262,608,258"/>
   <path d="M633,259C633,257,633,257,633,259"/>
   <path d="M648,253C648,253,649.11,252,648,253"/>
   <path d="M652,249C652,249,653,248,652,249"/>
   <path d="M643,249C642,249,647,248,643,249"/>
   <path d="M654,262C654,262,655,259,654,262"/>
   <path d="M645,253C646,251,646,251,645,253"/>
   <path d="M598,256C599,256,599.25,256,598,256"/>
   <path d="M659,260C660,258,660,258,659,260"/>
   <path d="M657,257C657,256,657,257,657,257"/>
   <path d="M639,248C639,247,639.23,247,639,248"/>
   <path d="M647,248C648,248,648,247,647,248"/>
   <path d="M657,258C658.33,256.06,658,256,657,258"/>
   <path d="M625,253C626,251,625,252,625,253"/>
   <path d="M660,258C660,256,660,257,660,258"/>
   <path d="M649,240C650,239,649,239,649,240"/>
   <path d="M624,238c10.49-5,4,9-1,15C599,251,617,240,624,238"/>
   <path d="M599,242C598,240,599,242,599,242"/>
   <path d="M638,243c7-2-3-0-5.52,2c2,3,3-0,6.72,0.96c-3,9-6-5-1,8  c-0-0-2-3-3-4c18-24-6,11-2.64,6C636,242,626,252,638,243"/>
   <path d="M654,246C653,244,654,245,654,246"/>
   <path d="M597,241C598,240,598,240,597,241"/>
   <path d="M590,244C589,241,589.88,242,590,244"/>
   <path d="M673,250c-0.32,4-0,9-0,14c-3-6-10-11-14.64-10  c-0-1-1-1.96-1-3.12c0,1.53,3-0,3-0c-6-2.13-6-0-4.8-3  C663.71,253,663.58,250,673,250"/>
   <path d="M610,237C610,236,610,235,610,237"/>
   <path d="M644,237C644,237,643,236,644,237"/>
   <path d="M600,243C599,242,599,242,600,243"/>
   <path d="M601,243C599,242,600,242,601,243"/>
   <path d="M603,243C603,242.46,603,242,603,243"/>
   <path d="M664,247C662,245,663,246,664,247"/>
   <path d="M648,242C648,244,649,251,648,242"/>
   <path d="M585,232c10,5,19,12,20.16,24C597,250,590,242,585,232"/>
   <path d="M506.02,187C507,186,508,186,506.02,187 M482,159c9,6,36,11,38,23.68  C522,189.69,484,180,482,159"/>
   <path d="M479,164c7,2,10,8,13.44,15C479,182,474,176,479,164"/>
   <path d="M485,181C489,182,489,182,485,181"/>
   <path d="M391.54,126c2,4,1,6-4.56,7c-0-0-0-0-0.96-0.72c1-0,1-0,0-0.48  c0-0,6.4-2,0.72-4.32C387,127,389,126,391.54,126"/>
   <path d="M395.38,128C396,127,396,127,395.38,128"/>
   <path d="M467,173c0,1,0,3,0.48,7C465,177,467,176,467,173"/>
   <path d="M430.18,165c-1-2-6-1-3.6-3.36C432,160,428,163.61,430.18,165 M418,160  C418,155,418,152,418,160 M421.06,143.45c9,3,6,1,2.88,3.36  c4.48,3,7,7,12,11c-0,1-2,2-4.08,4.8C427,153,405,148,421.06,143.45   M424,149C424,149,424,149,424,149"/>
   <path d="M390.58,221.94c6,1,8,5,7.44,12c-3-0-6,0-9.36,1  C386,230.55,387,225,390.58,221.94"/>
   <path d="M257.14,206C256,203,257,206.8,257.14,206"/>
   <path d="M390.82,95C392,95,392,95,390.82,95"/>
   <path d="M650,172c-1-0-9-2-9.84-2c6-1,11-9,11.04-14c-0-0.19-0-0-1.2-0.72  C656,161,661,169,650,172 M637,170C637,169,637,169,637,170   M647,170C647.58,170,647,169,647,170 M642,184  C642,183,642.44,183,642,184 M641,174C641,171,644,175.08,641,174   M649,155c-1-7-10-14,6.72-3C658,150,649,155,649,155 M645,174  C645,171.01,645,168,645,174 M650,163C650,161,650,162,650,163   M640,175C641,174,640,174.71,640,175 M643,179  C643,178,643,179,643,179 M643,179C644.07,177.66,643,178,643,179   M638,174C637.59,173,637,173,638,174 M640,188  C641,186,641,186,640,188"/>
   <path d="M467,175c4,1,3-3,7-0.48C466,187,471,178,467,175"/>
   <path d="M508,149c-4,5-11-13-7.2,6c-7-2-14-10-19.68-19  c-9-3,36.13-0,23.04-0.96c-17-16,39,2,44.64,3.6c-7,7-6,6-6,14  C523,148,529,163,508,149"/>  


     <path d="M468,247c0-3,0-7-0-11c5-0,10-0,15,0.48  C484,253,481.32,258.76,468,247"/>
   <path d="M518.02,352C520,350,522,349,518.02,352"/>
   <path d="M101,241C100,240,101,241,101,241"/>
   <path d="M631,161C615,165,632,140.38,631,161"/>
   <path d="M635,169C635,169,635,169,635,169 M633,172  C633,173,634.62,171,633,172 M629,162c3,0,6,2,6,6  C630,173,629,165,629,162"/>
   <path d="M492.1,180C491,179,491,180,492.1,180 M489,181C492,181,493.18,180,489,181"/>
   <path d="M527,153c5-2,10-1,16.32,0.48c-6,3-9,5.85-17.52,5  C535,156,529,158,527,153"/>
   <path d="M593,198c7,2,11,7,14.4,15C598,210,595,210,593,198"/>
   <path d="M441.22,120C451,130,441.29,122,441.22,120"/>
   <path d="M468.34,169C468,171,468,175,468.34,169"/>
   <path d="M452,309C459,309,455.77,309,452,309"/>
   <path d="M383.62,226c1,2,4,2,5.04,8C379,232,385.22,229,383.62,226"/>
   <path d="M420,179c9-5,27-9,30,6C457,220.72,419,194,420,179"/>
   <path d="M419,143.21C419.62,142,419,143,419,143.21"/>
   <path d="M439,127C436,124,451,122,439,127"/>
   <path d="M412,137.93C413,136,413,137,412,137.93"/>
   <path d="M616,196C616,197.24,616,197,616,196"/>
   <path d="M439.3,154c1,0.55,2-2,3.84,1.44C440,157,440,154,439.3,154"/>
   <path d="M493,277c4-9,7-8,5,7C497,303,471,286,493,277"/>
   <path d="M467,266c1,4,2,10,2.16,16C465.75,275,466,270,467,266"/>
   <path d="M627,229C627,229,627,228,627,229 M594,231  C594,230,594,231.19,594,231 M594,231c4,2,7,5,8.4,11  C597,240,597,236,594,231 M623,234c6-4,0-8,7.92-1.44  c-4,6-12,8-18,7C617.92,243,621.28,241,623,234"/>
   <path d="M543,233C543,233,543,233,543,233 M543,232  C543,231,543,231,543,232 M542,232C542,231,542,231,542,232   M543,231C543,231,543,231,543,231 M542,231  C542,230,542,230,542,231 M543,230C543,230,543,230,543,230   M542,230C542,229,542,229,542,230 M543,230  C543,229,543,229,543,230 M543,239C543,239,543,239,543,239   M542,240C542,239,542,239,542,240 M542,232  C542,232,542,232,542,232 M543,240C543,240,543,240,543,240   M543,246C543,246,543,246,543,246 M544,240  C544,240,544,240,544,240 M543,240C543,240,543,240,543,240   M543,244C542,244,542,244,543,244 M543,244  C543,244,543,244,543,244 M543,244C543,244,543,244,543,244   M542,237C542,237,542,237,542,237 M543,234  C543,234,543,234,543,234 M543,233C544,233,544,233,543,233   M543,233C543,233,543,233,543,233 M544,233  C544,233,544,233,544,233"/>
   <path d="M390.82,190c42,14.04-9,39-10.32,23C378,193,408,248,390.82,190"/>
   <path d="M428,166C428,166.71,428,166,428,166 M429,167  C428,166,428,166,429,167"/>
   <path d="M287.62,213C287,213,286,212,287.62,213"/>
   <path d="M386,188c25-2-15.84,55.87-15.84,11C376,196.29,381,192.45,386,188"/>
   <path d="M511,289C512,288,511.9,288,511,289"/>
   <path d="M194,182C193,180,193,181,194,182 M239.38,201  C239,200,240,199,239.38,201 M189,184C189.9,184,189,183.07,189,184 M195.46,182  C195,181,196,181,195.46,182 M189,174c28,5,21,8,31,27  c4,8,16.84-2,18-3c1,0-9,13-11.04,15c-13-6-28-25-35.28-37  c14,49,9,12,4.32,19C191,187,190.16,183,189,174"/>
   <path d="M447,140.57C454,145,457,146,447,140.57"/>
   <path d="M416.02,150"/>
   <path d="M565,132c14,3.05,28,6,41.76,11C590,151,529,152,565,132"/>
   <path d="M399.22,168c1,11-8,13-20.4,16C383,176,389,170,399.22,168"/>
   <path d="M469,270c3,0,7-0,10.8-2.4c1.15,6-10,35-17.76,35c2-7,4-19-2.16-25  c3,0,7,1,9.36,4C469,278,469,274,469,270"/>
   <path d="M590,220.02C590,219,590,219,590,220.02 M580,204  C579,203,579,204.18,580,204 M590,218.34C590,217.44,590,217,590,218.34   M580,203C579,202,580,203,580,203 M582,210  C582.41,210.35,582,209,582,210 M580,203c-7-1,2-24,3-20  c5,17,4,20,7.44,40C590.56,201,583,216,580,203"/>
   <path d="M430.18,295c-1-4.24-3.2-8-4-12c7,0,18,0,25,1.2  c-4,0-15,23-17,22C432.59,302,431,298,430.18,295"/>
   <path d="M551,179c10.11-1,15.15,1,15.12,8C560,187,555,184,551,179"/>
   <path d="M410.26,134C408.74,134,408,134,410.26,134 M412,134  C411,131,410,128,412,134"/>
   <path d="M718,292C718,291,718,291,718,292 M717,291  C717,289,717,290,717,291 M716,293C708.92,285,712.24,289.25,716,293"/>
   <path d="M98,340C96,339,97,340,98,340 M678,355C678,355.32,678,353.45,678,355   M715,327c0-6,2-2,1-7c0,4,0,8,5.76,6c-3,3.15-7,6.03-12,8  c-0-0-0-0-0-0.72C711,332,713,329,715,327 M686,347  C689,346,689,346,686,347 M696,340c3-2,7-4,11-6.96  c-1,1-1,2,1,0.96c-1,1-0-0.14,0,0c-8,6-5,4.83-9.84,5.04  c5-0,1,1-12.24,6c0-0,0-0-0.24-0.24C690,342,693,340,696,340"/>
   <path d="M240,214c3,1,6-0,2.88,6.96C234,218,239,217,240,214"/>
   <path d="M425.62,194c19,15.93-14,35-22.08,18C412,208,419,202,425.62,194"/>
   <path d="M428,215c2,20-14,21-20,16C407,218,415,212,428,215"/>
   <path d="M678,216C678,215,678.63,215,678,216"/>
   <path d="M424,99C425,98,425,98,424,99"/>
   <path d="M430,97C429.89,96,430,97,430,97"/>
   <path d="M434,96C433,96,434,96,434,96"/>
   <path d="M415.54,109C415,109,417,108,415.54,109"/>
   <path d="M426,99C426.93,99,428,96,426,99"/>
   <path d="M422.26,100C422,100,422,100,422.26,100"/>
   <path d="M429,97C429,97,430,96,429,97"/>
   <path d="M431.62,97C431,96,431,97,431.62,97"/>
   <path d="M438.1,95C437,95,438,94,438.1,95"/>
   <path d="M433.54,96C433,96,436,95,433.54,96"/>
   <path d="M434,96C434,96.91,435,95,434,96"/>
   <path d="M415.54,109C416,109,417,109,415.54,109"/>
   <path d="M435,96C435,96,436,95,435,96"/>
   <path d="M415.06,109C415,109,415,109,415.06,109"/>
   <path d="M420,106C421.24,105,420,105,420,106"/>
   <path d="M423.22,100C424,100,424.73,100,423.22,100"/>
   <path d="M424.18,100C425,99,426,99,424.18,100"/>
   <path d="M411,115C411,115,411,115,411,115"/>
   <path d="M428,98C428,98,429.81,96,428,98"/>
   <path d="M424.18,100C423,99,423,99,424.18,100"/>
   <path d="M441,97C446,97,444,97,441,97"/>
   <path d="M419.14,108c-0-1,6-6.99,6.48-7c-1-1,11-5.59,16.56-6c-0,0-0,0-0.24,0.72  c-13,1-20,8-20.88,22c-1-0-2-1-1-2.16c-1,2.98-5,2-7,1.92  c3-3-0,1.29-0-1.2c0,0-0,0,2-1.68c-0,1-0,1,0-0.24  c-0-0-3,0-3.12,0.48c1,0,0-1-0-1.44c5-1,4,1,0-0.24  c5,0-3-2,3.6-2.64"/>  
   
   
     <path d="M414.34,111c1-1,0-0,4.8-2.64"/>
   <path d="M513,201C513,200,514,199,513,201 M507,196  C526,187,497,224,507,196"/>
   <path d="M536,164c13,11-12,46-21.36,15C529,179,528,172,536,164"/>
   <path d="M247,229C246.65,228,246,228,247,229 M244.9,224c3,0,7,1,10.8,3.36  c-0-0-2-1-1.68-1.44C248,229,250,228.46,244.9,224"/>
   <path d="M690,265C689.84,265,689,265.05,690,265 M691,266  C689,265,690,265,691,266 M691,267C691,265,691,266,691,267   M684,250C685,249,686.73,248,684,250 M691,250  C690,250.23,690,250,691,250 M690,258C694,251,694,252,690,258   M696,270C694,269,695,270,696,270 M684,256  C684,255,684,256,684,256 M686,257C685,256,686,257,686,257   M696,255C691,248,693,251,696,255 M695,265  C694.47,264.36,694,264,695,265 M673,258c6-10,11-4,17.76,9  c-5-3.62-13-7.92-13-3.36C671,266,674,261,673,258"/>
   <path d="M286.9,287c10,2,20,12,7.44,16C292,300.61,288,294,286.9,287"/>
   <path d="M271.54,278c-8,13-21.28-15-22.08-26C264,240,266,257,271.54,278"/>
   <path d="M632,234C633,233,633,233,632,234 M638,225  C637,221,637,220,638,225 M638,224C639,220,639,220,638,224   M643,223.86C642,223,642,221,643,223.86 M639,224  C640,223,641,222,639,224 M637,222.42C637,221,637,221,637,222.42   M637,227c1-0,6-2,6.72-3.12c1,2,1,4,0.96,6  C643,231,642.57,234,637,227 M643,221.22C639,216.97,640,217,643,221.22 M641,223.38  C640,218,641,221,641,223.38 M639,219.78C637.94,218,636,217,639,219.78 M630,221.22  C630,222,624,235,630,221.22 M636,231C636,230,637.18,230,636,231   M635,232C633,231,635,232,635,232 M635,218.82  C635,217.86,635,216,635,218.82 M632,219.06C631,218,631,218,632,219.06   M635,216C635,215,635,215,635,216 M636,218.58  C636,217,636,217,636,218.58 M634,213C634,212,634,211,634,213   M640,220.26C640,219,640,220,640,220.26 M639,215  C639,214,639.4,214,639,215 M632,215C634,217.99,635,218,632,215   M635,222.42C637,218,637,219,635,222.42 M630,209c5-11,4,1.39,8,7  C635,216,632,213,630,209"/>
   <path d="M434,127c6,1,9,5,6.72,11c-7.78-0-13-2-15-10  C428,128,431,128,434,127"/>
   <path d="M357.7,163C356,161,358,163,357.7,163 M353.14,161C352,161.52,352,161,353.14,161   M355.06,161C354,160,354,161,355.06,161 M372.34,174  C371,172,372,174,372.34,174 M387.7,154c3,4,4,2,1.2,10  C385,162,387,159,387.7,154"/>
   <path d="M276.58,206C276,206,281,203,276.58,206"/>
   <path d="M498,191C498.65,188,498,187.95,498,191"/>
   <path d="M507,291C507,289,507.59,290,507,291"/>
   <path d="M447,140.81c4,1,6,3,6.72,6c-4,2-10,1-16-2  C440,142.4,443,140.96,447,140.81"/>
   <path d="M461,247C459,251,458,252,461,247"/>
   <path d="M424,149C424,149,424,149,424,149"/>
   <path d="M415,244C415,244.14,416,244,415,244 M417,241  C417,241,417,241,417,241"/>
   <path d="M507,189C508,187,508,187,507,189 M475.06,175c13,5,21.24,13,33,21  C479.48,231,466,179,475.06,175"/>
   <path d="M371.86,210c5.36-0,8.56,2,9.6,7c-3.28-0-6.56-0-9.84-0.48c4-0,0,0-0.48,0.24  c-0-2,1-3,5.76-2C371,216.86,369,215.02,371.86,210"/>
   <path d="M510.1,254C509,254,509,254,510.1,254 M509,255C509,255.02,509,254,509,255"/>
   <path d="M379.06,229C378,228,378,228,379.06,229 M378.58,225C382,229,383,230,378.58,225  "/>
   <path d="M602,242C602,242,602,242,602,242"/>
   <path d="M431.62,139.85c3-0,5.49-2,9-0.96c-0.16,0.48-0.32,0.96-0.48,1.44C437,140.17,434.58,140.01,431.62,139.85"/>
   <path d="M430.42,143.93C422,150,429,145,430.42,143.93"/>
   <path d="M703,262C703.5,262,703,261,703,262 M711,266  C709,262,710,263,711,266 M701,260C698,255,700,258,701,260   M702,262C702,261,702,261,702,262 M712,268  C710,266,711,267,712,268 M705,264C705,263,705,263,705,264   M699,256C699,255,699,255,699,256 M709,266  C706,264.06,709,266.5,709,266 M704,263C704,262,703.34,262.1,704,263 M711,266  C711,266,710,264,711,266 M709,270C707,269,708,270,709,270   M704,261C702,258,702,259,704,261 M708,263  C704,259,707,262,708,263"/>
   <path d="M505,218.34C505,217,505,216,505,218.34 M485,221.22c5-0,10-0,15.84-1.92  c-2,11-8,21.5-17,29c1-12,2-13,11-21C490,227,486,225,485,221.22"/>
   <path d="M458,293c5.94,5,3,7,6,10c-5,11-31,28-29,2  C433.98,306,457,293,458,293 M456.34,307C453.76,313,454,310,456.34,307"/>
   <path d="M376.66,184C377,183.5,378,181,376.66,184 M408.58,159C408,158,408,158,408.58,159   M374.26,184C374,183,374,183,374.26,184 M372.34,184  C372,183,373,182,372.34,184 M405,160C405,160,405,159,405,160   M377.62,182C378,181,378,181,377.62,182 M370.18,183  C370,182,370,182,370.18,183 M410.74,158C409,157,409,158,410.74,158   M405,152c1,5-9.42,16-13,11c-9-10,6-6.52-4-11  C393,152,399,152,405,152"/>
   <path d="M555,228C560,223,557,226,555,228"/>
   <path d="M284.74,208C284.74,207,284.74,207,284.74,208 M284.5,207C284,206,284,207,284.5,207"/>
   <path d="M287.38,215C287,215,286,213,287.38,215"/>
   <path d="M286.66,216 M286.9,216 M286.66,217.14 M286.66,216 M286.18,217.86 M286.18,217.62  C286.18,217.94,286.18,217.94,286.18,217.62 M286.42,217.62C286.1,217.62,286.1,217.62,286.42,217.62 M286.42,217  C286.42,217.7,286.42,217.7,286.42,217 M286.9,216C286.9,217.22,286.9,217.22,286.9,216 M286.66,216.66  C286.99,215,286,216,286.66,216.66"/>
   <path d="M471,235c-17,7-30-16-22-30C476,158,472,236,471,235"/>
   <path d="M292.66,237c2-1.63-0-7,7.2-5C299,244,296,237,292.66,237"/>
   <path d="M434,86C434,86.15,436.16,85,434,86 M435,82C435,82,435,82,435,82   M437,82C437,82,440,81,437,82 M431,84C429,81,431,85,431,84   M441.22,80C438,81,446.99,79,441.22,80 M428,83C427,84,432.63,81,428,83   M428.02,89C427,88,428,89,428.02,89 M431,81c-9-1,4-2-6.96-1.2  C425,80,429,79,431,81 M423,86c-1-1-4-2,0-3.12  c-3-0-5-0-8.4-1.68C423,81,430,78,423,86"/>
   <path d="M462.58,301.39C460,305,461,303,462.58,301.39"/>
   <path d="M421.06,120C421,119,421,119,421.06,120 M429.22,124C429,122,429,121,429.22,124   M431,122C433,119,432,120,431,122 M431,99c3,1,5,3,6.24,6  c-13,7-7,3-6,11c-5-0-1,2-0.24,0.96c-0.44,1-6,6.88-8.16,7  C418.81,114,421,105,431,99"/>
   <path d="M419,142.73c0-0,0,3-6,2.4C415,140,417,143,419,142.73"/>
   <path d="M479,164c-3.86,4-4.11,9-11,9C465,164.71,470,167,479,164"/>
   <path d="M630,197C629,194,628,181,630,197"/>
   <path d="M528,157c2,0,6,4,9.12,6c-2,0-10,0-12.48,0.96  C522,156,521.34,159,528,157"/>
   <path d="M478,259C478,257,478,257,478,259 M478,262  C479,261,479,261,478,262 M479,256C479,256,479,254,479,256   M459,254c5-15,20,0,20,13C468,271,462,266.68,459,254"/>
   <path d="M591,228C591,227,591,227,591,228 M590,200c6,3,12,12,8.88,18  c-1-0-3-3-5-4c0,4,1,15,2.88,17C589,227,587,208.77,590,200"/>
   <path d="M402.82,220.98c0,2,4,5,3,10C404.32,227,403,224.44,402.82,220.98"/>
   <path d="M73,286C73,285,73,285,73,286 M74,291C73,290,73.58,290,74,291   M74,285C74,285,74,285,74,285 M73,288C73,287,73,287,73,288   M74,291.79C74,291,74,291,74,291.79 M74,285C74.64,285,74,285,74,285"/>
   <path d="M284.98,223.38C286,221.8,287,221,284.98,223.38"/>
   <path d="M422,172C422,171,422,171,422,172 M424.18,172c-2,0-14-0-1.2-8  C422,167,422,170,424.18,172"/>
   <path d="M449,154c1.24,0,4-1,4.08,1.44C447,159,451,156,449,154 M476.02,154  c4,1,6,4,7,9C455.49,166,430,152,476.02,154"/>
   <path d="M494,154c13-4,18,3,27.36,9C500,174,501,154,494,154"/>
   <path d="M264.58,199C265,199,266,198,264.58,199"/>
   <path d="M468.34,244c-3,0-4,3-8.4,3C462,234.81,465,233,468.34,244"/>
   <path d="M441,133c11-3,20-0,27.36,7c-1.86,1-3.94,2-6.24,3.84c-0-2,3,1,2.64,2.16  c-6-3-4-0-8.64-4c-1,3-3,2.56-5.52,3C456,140,443,143,441,133"/>
   <path d="M507,188c0,2,0,5,0,8c-3-0-7-2-9-5  C502,193,505.12,192,507,188"/>
   <path d="M393.22,124C393,123,394,123,393.22,124 M396.1,130C396,129,396,129,396.1,130   M394.9,125C394,124,394,125,394.9,125 M392.26,121C393.38,119,393,119,392.26,121   M393.7,122C392,121,392,121.01,393.7,122 M398.74,118C397,117,399,119.12,398.74,118   M391.78,121C391,121,391,120,391.78,121 M393.22,125C393,124,393.09,124.54,393.22,125   M393.7,124C393,125,394,123,393.7,124 M401.14,135.77C400,135,401,135,401.14,135.77   M391.54,122C391,121,391,121,391.54,122 M401.14,116  C401,114,401,114,401.14,116 M394.9,120c3-2,18.18,14-1.2,16  c20-25.18-4,9,0.72-3c6-6,2.13-7-0.48-7C394,121,393,123,394.9,120"/>
   <path d="M190,121C191,120,192,119,190,121"/>
   <path d="M159,123c1-0,0-1,4.56-2.4c-0-0.25,1,0,0.24,0.48  C166,121,165,121,159,123"/>
   <path d="M189,122C190,121,190,121,189,122"/>
   <path d="M161,122C162,122,163,121,161,122"/>
   <path d="M191,123C193,122,193,122,191,123"/>  


     <path d="M190,124C192,122,192,122,190,124"/>
   <path d="M193,123C193,123,193,122,193,123"/>
   <path d="M153,119C153,119,154,118,153,119"/>
   <path d="M192,124C193,123,193,123,192,124"/>
   <path d="M193,124C193,123,194,123,193,124"/>
   <path d="M103,197C103,197,103,196,103,197"/>
   <path d="M193,124C193,123,193,123,193,124"/>
   <path d="M190,124C191,124,192,123,190,124"/>
   <path d="M110,133C112,132,112,133,110,133"/>
   <path d="M193,126C193,126.4,194,123,193,126"/>
   <path d="M191,127C192,122,192,123,191,127"/>
   <path d="M698,134C696,133.22,697,133,698,134"/>
   <path d="M106,198C106,198,106,198.25,106,198"/>
   <path d="M146,126C147,125,146,125,146,126"/>
   <path d="M670,127C668,125,667,125,670,127"/>
   <path d="M146,126C147,126,148,125,146,126"/>
   <path d="M192,126C193,126,192,126,192,126"/>
   <path d="M189,127C190.51,125,190,126,189,127"/>
   <path d="M138,127C141,126,142,126,138,127"/>
   <path d="M673,127C671,127,670,126,673,127"/>
   <path d="M135,128C135,128,136,127,135,128"/>
   <path d="M131,130C133,129,136,127,131,130"/>
   <path d="M127,130C130,129,131,129,127,130"/>
   <path d="M108,199C106,198.68,108,199,108,199"/>
   <path d="M685,131C683,129.75,685,131,685,131"/>
   <path d="M118,132C116,132,121,132,118,132"/>
   <path d="M115,132C117,132,119.64,132,115,132"/>
   <path d="M694,133C694,132,694,132,694,133"/>
   <path d="M111,133C113,132,113,132,111,133"/>
   <path d="M110,133C110,133,111,132,110,133"/>
   <path d="M108,200C109,199,109.14,199,108,200"/>
   <path d="M196,141.29C196,140,196,140,196,141.29"/>
   <path d="M109,203C110,201,110,200,109,203"/>
   <path d="M272.98,157C274,156,279,154,272.98,157"/>  

   <path id="USA"  d="M271,149c4-2,12-3,16.32-6c-0,0-7,15-6.72,11  c-8,2-11,5-13.68,10c0-1,0-3,1.92-5c-1,1-4,3-2.64,1.44  c-0,7-1,0,0.72,6c-0-3-2.05,1-2.16,1.92c0-0,0-0,0.48-0.24  c-12,4-12.55,13-12,21c-0.48,0-0.96,0-1.44,0c-1-8-5-13-15.12-10  c9.22,6-18-5-14.88,9c-1.84-2.88-3.68-5-5.52-8
     L216,180c-9-2-36-9-32.64-17c2-7,8-19,12-21c-1,0-0,0.81-1.2,2.16  c0.32,0,0.32,0,0,0c-0-0,74-19,63.36,11c4.4-1.6,8.8-3.2,13.2-4.8"/>
    
     <path d="M191,122C194,119,194,119,191,122"/>
   <path d="M164,120C165,119,167,118,164,120"/>
   <path d="M179,116C179,116,180,114.69,179,116"/>
   <path d="M140,115C138,114.73,140,115,140,115"/>
   <path d="M147,117C147,117.59,150,113.08,147,117"/>
   <path d="M176,116C178.57,115,179,115,176,116"/>
   <path d="M150,110C150,109,150,108,150,110"/>
   <path d="M189,124C189,123,191,118.57,189,124"/>  
   <path d="M207.94,98c-7,5-14,11-20.16,17c8,2,8,1,5.28,11c3-3.19,2-3.75-0.48-1.68  c4-7,1-3.68,2.16-7c-4,3-0,0.32-4.56,2.4c-3-3-8-7-13.68-4.32  c-0.72,0,32-7-7.68,2.4c11,0,5-2,9.12-4c-1.37-0-30,12-35.76,12  c-7.1,1,50-24,18.96-7c-11,2-2-0-2.4,0.24c-0,0-6,0-7.2,0.72  c1-1,4-2,5.28-4c-10,1-3,3-5.76,0.24c4-0,2,0,3.84-0.96  c-3,0-3,0,0-1.2c-0-0.01-3,2-2.64,0.24c4-2,9-4,14.4-5
     L166,108c-10-1.14-3-1-6-2.88c7-0,10-1,14.16-1.92c-1.51-0-1-0-5.04-3  c15-4,21-4,39.12-2.4"/>
     <path d="M296.98,315C303,313,309,321.21,296.98,315"/>
   <path d="M503,146c9,6.24,21,10,28,10c-8-0-7,1-7.44,7  C513,156,496,159,503,146"/>
   <path d="M721,280C721,280,722,279,721,280 M721,283  C721,283,721,282.81,721,283 M722,286C722,285,722,285.71,722,286   M722,281C721,281,721,281,722,281 M722,287  C722,286,722,287,722,287 M722,279C722,278,722,278,722,279   M720,281C720,278,720,280,720,281 M721,278  C721,278,721,278,721,278 M719,268C719,268,719,267,719,268   M719,279C720,275.94,719.84,278,719,279"/>
   <path d="M280.9,221.46C280,221,280.92,220,280.9,221.46 M263.14,225c12-8,2,0,2.88,0  c6-10,6-5,19.2-3c3,4-1,15-7.68,22C272,230,273,231,263.14,225"/>  
   
   
     <path d="M599,202c-7-9.26-2-7,6.96-3c-6,7,10,21-3.12,28  C609,217,607.53,209,599,202"/>
   <path d="M378.82,184c10,2,15,4-7.68,15C373.7,195,376.26,190,378.82,184"/>
   <path d="M75,274C74,273,74,274,75,274 M76,275C76,273,76,276,76,275"/>
   <path d="M501,203c-1,6-18.99,22-15.84,3.12C493,217,489,203,501,203"/>
   <path d="M435,145c7.45,3.65,7,6.61,1.44,8C436,152,435,148,435,145"/>
   <path d="M463.06,240c-4,13-3.12,20-3.12,33c-11-2-21-19-33-16  C438,253,447.24,217,463.06,240"/>
   <path d="M457,280c-11,2-14-1-8.88-12c4,0,8,2,11.04,5  c-0.52-3,0-6,3-8C467,271,465,277,457,280"/>
   <path d="M457,280c14,4,3.09,18.46-6.96,2.88C453.48,284.36,455,283,457,280"/>  
   
   
     <path id="Russia" d="M656,100c2.72,1.84,5.44,3,8.16,5c0-1-5,1-6.48,0.96c4,0,8,2,12,4  c-7,2-8,4.66-17.76,4c8.51,6,7,6.43,9,14c0-0-0,1-1.2,4  c-7-4-17-16-11-23c0.12-0.02-7,1.1-10,2c0-0-18,6-21,12  c10,1,28,26.07,11,26c0-1,0.26-5,0-5c-5-6-12-11-21.12-14 
     L610,132c-10.32-4-10-5-9,4c-12.55,2-24.63,0-36.24-4  c-5,8-75.14-11.45-60,2c13.09,0-32-2-23.04,0.96c20,33-16,7-11,5  
     L470,141.53c-3-7-29-14-20-24c-0-1-4-13-6-17  c1-1,3-1,6-1.44c-9-0,71,32,13.2,5c-3,1-9-0-13.68-0.48  c2,2,8,4,10,6c-0.45-1-1-1-2-1.92c7,0.9,11,0,7-6  c2-0,4,0,5,1.68c-1-0-2-0-2.4,0.96c7-1,18-3,19.44-4  c3-2,8-1.85,12.96,2c-0-0-2-6-4-8c10,2,12,5,6.48,11  c7-3,4-1,13-1.44
     L515,101c-4.32-2.64-8.64-5-12.96-7c1-0,1-0,0.48-1c2,0,5,1,8.16,3  c-0-0-3,0-5.04-1.68c5.18,1,1.27-0,1-0.24c6,1,8,2,11,3  c-14-8-9-3-0.48-6c-1,0-1,1,0,1.44c-2-1-0-1-3-2.88  c0.4-0.08,0-0.32,0.72-0.72c8-1.06,10-1.54,6.24-1.44c-0-1,7,0,10.8,1.2  c0.61,0-6-2-4.32-2c5-2.1,5,2,1-0.96c2,0,25,4,16.56,2.16  c0-1,2,2.04-3.36,5c1-1,3-1,6-1.68c-7-2.48,9.21,3.85,5,1.68  c-0-0.06-1-1-1-1.44c7,0,15,1,22,3c-1-0.56-1-1.2-2-1.92  c5,1,14,2,19.92,1.68c-0-0-1-1-3-1.2c0-2,5-0,10.08-0.24  c-2,0-5-0,0,0.72c-0-0,23,3,29.04,6c-10,0,33-0,12-0.24  c-0-0-3-1-3-2.64c4.16,0.4,8,0.8,12,1.2"/>
   <path d="M650,98c2-0,2,0,6,2.64"/>
   <path d="M158,95C161,95,165,94,158,95"/>
   <path d="M648,95C646,95,645,94,648,95"/>
   <path d="M140,106c3-4,8-6,14.16-5c-0-0-2,2-2.64,2c1-0,3-1,5.76-1.2  c-0.17,0,0.07,1,0.72,1.44C148,109,146,106,140,106"/>
   <path d="M473,90c0-3,12-4,16.56-4C482,88,478,91.64,473,90"/>
   <path d="M632,128c4.72,3.92,9,7,14,11c-1-0.96-2.35-1-3-1c-0,3,1,5,5.52,6  c-1.98-0-1-2-1.92,0.48C641,139.79,636,133,632,128"/>
   <path d="M472.42,94c3-5,6-0,9.6,2.16C477,96,476.41,95,472.42,94"/>
   <path d="M578,87c3-0,7,0,11.28,0.72c-0,0-2-0.24-4-0.24c1,0,2,1.25,4.08,1.2  C585,89,581,88,578,87"/>
   <path d="M514,81c3-0,6-0,9.6,0.96C521,81,518.1,81,514,81"/>
   <path d="M511,80C520,79.36,520,79.36,511,80"/>
   <path d="M525,82c0-0,0-1,6.48,0.24C528,84,525,82,525,82"/>
   <path d="M565,90c2,0,3.96-0,6.72,2.16C565,92.62,567,91,565,90"/>
   <path d="M590,87c1,0,4,0.54,7.2,0.96C595,89,592,87,590,87"/>
   <path d="M570,91C574,92,573,92,570,91"/>
   <path d="M587,91C590,91,595,90,587,91"/>
   <path d="M458,80C465,79,463,79,458,80"/>
   <path d="M470,98C474,99,472,99,470,98"/>
   <path d="M472,79C475,79,477,79,472,79"/>
   <path d="M476,79C479.16,79,481,78,476,79"/>
   <path d="M483,96C485,97,487,98,483,96"/>
   <path d="M572,93C577,93,577,93,572,93"/>
   <path d="M511,80C516,81,513,80.92,511,80"/>
   <path d="M456.1,79C461,79,460,79,456.1,79"/>
   <path d="M548,89C550,89,551,89,548,89"/>
   <path d="M495,91C498,92,496,91,495,91"/>
   <path d="M634,97C638,97,637,97,634,97"/>
   <path d="M470,79C474,80,472,80,470,79"/>
   <path d="M466,79C472,79,470,79,466,79"/>
   <path d="M656,148C659,146,656,147,656,148"/>
   <path d="M656,118C657,119.27,657,119.2,656,118"/>
   <path d="M469.54,80C469,80.58,472,79,469.54,80"/>
   <path d="M506.02,93C507.32,92,508,92,506.02,93"/>
   <path d="M586,89C588,90,587,90,586,89"/>
   <path d="M661,136.25C662,136,662,136,661,136.25"/>
   <path d="M623,126C624,127,624,126,623,126"/>
   <path d="M467,78C470,78,470,79.01,467,78"/>
   <path d="M507,92C508,92,510,92,507,92"/>
   <path d="M464,80C466,80,468,80,464,80"/>
   <path d="M508,78C510,79,510,79,508,78"/>
   <path d="M473,79C475,79.27,475,79,473,79"/>
   <path d="M654,150C657,147,654,150,654,150"/>
   <path d="M468,79C472.19,79,471,79,468,79"/>
   <path d="M576,87C578,87,578,88,576,87"/>
   <path d="M469.3,78C470,78,472,78,469.3,78"/>
   <path d="M474.1,94C475,95,475,95,474.1,94"/>
   <path d="M466,79C469,79,468,79,466,79"/>
   <path d="M495,79C498,79,497,79,495,79"/>
   <path d="M659,145C661,144,658,146,659,145"/>
   <path d="M475.3,78C477,78,477,78,475.3,78"/>
   <path d="M524.02,86C526,86,525.77,86,524.02,86"/>
   <path d="M473,80C474,80,475,80,473,80"/>
   <path d="M468,79C470,79,470,79,468,79"/>
   <path d="M470,78C472,78.05,471,78,470,78"/>
   <path d="M572,92C575,92,575,92,572,92"/>
   <path d="M494,81C495,81,496,81,494,81"/>
   <path d="M522,85C523,85.04,524,84,522,85"/>
   <path d="M507,88C508,87,509,87,507,88"/>
   <path d="M579,89C582.58,90,581,90,579,89"/>
   <path d="M501,92C502.07,92,503.07,91,501,92"/>
   <path d="M588,94C590,94,589,94,588,94"/>
   <path d="M534.1,83C535,83,536,83,534.1,83"/>
   <path d="M514,88C515,88,516,88.81,514,88"/>
   <path d="M590,85C591,85,591,85,590,85"/>
   <path d="M573,92C575,92.42,575.7,92,573,92"/>
   <path d="M573,92C574,92.73,575,92.67,573,92"/>
   <path d="M544,85C545,86,545.66,86.36,544,85"/>
   <path d="M561,91C563,92.06,562,91,561,91"/>
   <path d="M434,127C436,127,435,127.18,434,127"/>
   <path d="M661,137.93C661,137,662,138,661,137.93"/>
   <path d="M514,84C515,84,515,84,514,84"/>
   <path d="M502,91C503,91,502,91,502,91"/>
   <path d="M622,126C623,126,622,126,622,126"/>
   <path d="M661,135.29C662,135.3,662,135,661,135.29"/>
   <path d="M507,87C508,87,510,87,507,87"/>
   <path d="M513,89C514,89,514,89,513,89"/>
   <path d="M514,89C515,89,514,89,514,89"/>
   <path d="M454,106C455,106,455.35,106,454,106"/>
   <path d="M533,83C534,83,534.08,83,533,83"/>
   <path d="M661,143.69C661,142,661,142,661,143.69"/>
   <path d="M511,90C511,90,513,90,511,90"/>
   <path d="M513,88C514,89,514,89,513,88"/>
   <path d="M536,84C537,84,537,84,536,84"/>  
  </g>

  
  <circle id="pinpoint" cx="param(x)" cy="param(y)" r="5" fill="yellow" stroke="brown" stroke-width="3" />

<!--http://www.w3.org/TR/SVGParamPrimer/param.js"--><script type="text/javascript"><![CDATA[
var a=[];if(document.defaultView.frameElement)for(var g=document.defaultView.frameElement.getElementsByTagName("param"),h=0,aa=g.length;aa>h;h++){var k=g[h],l=k.getAttribute("name"),m=k.getAttribute("value");a[l]=m}var p=document.defaultView.location.href;if(-1!=p.indexOf("?"))for(var q=p.split("?")[1].split(/&|;/),r=0,ba=q.length;ba>r;r++){var k=q[r],s=k.split("="),l=unescape(s[0]),m=unescape(s[1]);a[l]=m}
for(var ca=[],t=[],u=document.documentElement.getElementsByTagName("*"),v=0,da=u.length;da>v;v++){var y=u[v];if("use"!=y.localName)z(y,a);else{var A;var B=y,C=ca,D=v;shadowParams=a;for(var E=!1,F=B.childNodes,G=0,ea=F.length;ea>G;G++){var H=F[G];if(1==H.nodeType&&"param"==H.localName){var fa=H.getAttribute("name"),ga=H.getAttribute("value");shadowParams[fa]=ga;E=!0}}var I=B.getAttribute("parameters");if(I)for(var J=I.split(";"),K=0,ha=J.length;ha>K;K++){var L=J[K].split(":");shadowParams[L[0]]=L[1];
E=!0}if(E){var ia=B.getAttributeNS("http://www.w3.org/1999/xlink","href").replace("#",""),M=document.getElementById(ia).cloneNode(!0);z(M,shadowParams,!0);for(var O=document.createElementNS("http://www.w3.org/2000/svg","g"),P=document.createElementNS("http://www.w3.org/2000/svg","g"),Q=0,ja=B.attributes.length;ja>Q;Q++){var R=B.attributes[Q];"content-value"!=R.localName&&"params"!=R.localName&&"parameters"!=R.localName&&"href"!=R.localName&&"x"!=R.localName&&"y"!=R.localName&&P.setAttribute(R.name,
R.value)}var ka=B.getAttribute("x"),la=B.getAttribute("y");O.setAttribute("transform","translate("+ka+","+la+")");P.appendChild(M);O.appendChild(P);for(var S=M.getElementsByTagName("*"),T=0,ma=S.length;ma>T;T++){var U=S[T];z(U,shadowParams,!0);for(var V=0,na=U.attributes.length;na>V;V++){var R=U.attributes[V],W=R.value;"id"==R.localName&&(U.setAttribute(R.name,W+"__"+D),C[W]=W+"__"+D);if(-1!=W.indexOf("url(#"))for(uid in C)-1!=W.indexOf("url(#"+uid+")")&&U.setAttributeNS(R.namespaceURI,R.name,"url(#"+
C[uid]+")")}}A=O}else A=null;A&&t.push([y,A])}}for(var X=0,oa=t.length;oa>X;X++){var Y=t[X][0];A=t[X][1];Y.setAttribute("display","none");Y.nextSibling?Y.parentNode.insertBefore(A,Y.nextSibling):Y.parentNode.appendChild(A)}function Z(b,w){var f=b.split(")"),n=f[0].replace("param(",""),x=null;f[1]&&(x=f[1].replace(/^\s\s*/,"").replace(/\s\s*$/,""));(f=w[n])||(f=x);return f}
function z(b,w,f){for(var n=0,x=b.attributes.length;x>n;n++){var c=b.attributes[n];if(c){var e=c.value;if(-1!=e.indexOf("param("))if("params"==c.localName){if(f)for(var c=e.split(";"),e=0,pa=c.length;pa>e;e++){var d=c[e].split(":"),N=d[0],d=Z(d[1],w),$=null;if("href"==N||"xlink:href"==N)$="http://www.w3.org/1999/xlink";b.setAttributeNS($,N,d)}}else d=Z(e,w),null!=d&&""!=d&&("content-value"==c.localName?b.replaceChild(document.createTextNode(d),b.firstChild):(b.setAttributeNS(c.namespaceURI,c.name,
d),(d=b.getAttribute("params"))?b.setAttribute("params",d+";"+c.name+":"+e):b.setAttribute("params",c.name+":"+e)))}}};
]]></script>
</svg>
